# xmcd CD database file
#
# Track frame offsets:
#	150
#	1195
#	31185
#	54753
#	64724
#	84991
#	99955
#	115999
#	144084
#	157737
#	178261
#	199403
#	216532
#	235856
#	266151
#	279287
#
# Disc length: 3839 seconds
#
# Revision: 0
# Processed by: cddbd v1.5.2PL0 Copyright (c) Steve Scherf et al.
# Submitted via: CDex 1.70beta3
#
DISCID=cf0efd10
DTITLE=Various Artist - ラーメンJAZZ
DYEAR=2010
DGENRE=Jazz
TTITLE0=湯切り de SWING
TTITLE1=モーニン
TTITLE2=ワーク・ソング
TTITLE3=地下室のメロディー
TTITLE4=スパイ大作戦のテーマ
TTITLE5=ルート66
TTITLE6=イン・ザ・ムード
TTITLE7=ナウズ・ザ・タイム
TTITLE8=マック・ザ・ナイフ
TTITLE9=ナイト・アンド・デイ
TTITLE10=二人でお茶を
TTITLE11=バードランドの子守唄
TTITLE12=テイク・ファイブ
TTITLE13=煙が目にしみる
TTITLE14=星に願いを
TTITLE15=ラーメンJAZZ
EXTD=YEAR: 2010
EXTT0=
EXTT1=
EXTT2=
EXTT3=
EXTT4=
EXTT5=
EXTT6=
EXTT7=
EXTT8=
EXTT9=
EXTT10=
EXTT11=
EXTT12=
EXTT13=
EXTT14=
EXTT15=
PLAYORDER=
